<svg width="30" height="31" viewBox="0 0 30 31" fill="none" xmlns="http://www.w3.org/2000/svg">
<path fill-rule="evenodd" clip-rule="evenodd" d="M20.9374 21.6814L11.5624 15.4314L20.9374 9.18142C21.0606 9.09935 21.1663 8.99382 21.2486 8.87088C21.331 8.74794 21.3883 8.60999 21.4173 8.46489C21.4463 8.3198 21.4465 8.17042 21.4178 8.02526C21.389 7.88011 21.332 7.74204 21.2499 7.61892C21.1679 7.49581 21.0624 7.39007 20.9394 7.30773C20.8165 7.2254 20.6785 7.16809 20.5334 7.13907C20.3883 7.11005 20.2389 7.10989 20.0938 7.13861C19.9486 7.16732 19.8106 7.22435 19.6874 7.30642L9.05995 14.3914C8.88875 14.5056 8.74838 14.6602 8.6513 14.8417C8.55421 15.0231 8.50342 15.2257 8.50342 15.4314C8.50342 15.6372 8.55421 15.8398 8.6513 16.0212C8.74838 16.2026 8.88875 16.3573 9.05995 16.4714L19.6874 23.5564C19.8106 23.6385 19.9486 23.6955 20.0938 23.7242C20.2389 23.753 20.3883 23.7528 20.5334 23.7238C20.6785 23.6948 20.8165 23.6374 20.9394 23.5551C21.0624 23.4728 21.1679 23.367 21.2499 23.2439C21.332 23.1208 21.389 22.9827 21.4178 22.8376C21.4465 22.6924 21.4463 22.543 21.4173 22.398C21.3883 22.2529 21.331 22.1149 21.2486 21.992C21.1663 21.869 21.0606 21.7635 20.9374 21.6814Z" fill="#09B451"/>
</svg>
