<svg width="30" height="31" viewBox="0 0 30 31" fill="none" xmlns="http://www.w3.org/2000/svg">
<path fill-rule="evenodd" clip-rule="evenodd" d="M9.06255 21.6814L18.4376 15.4314L9.06255 9.18142C8.93944 9.09935 8.83369 8.99382 8.75136 8.87088C8.66903 8.74794 8.61171 8.60999 8.5827 8.46489C8.55368 8.3198 8.55352 8.17042 8.58224 8.02526C8.61095 7.88011 8.66798 7.74204 8.75005 7.61892C8.83213 7.49581 8.93765 7.39007 9.06059 7.30773C9.18353 7.2254 9.32149 7.16809 9.46658 7.13907C9.61167 7.11005 9.76106 7.10989 9.90621 7.13861C10.0514 7.16732 10.1894 7.22435 10.3126 7.30642L20.9401 14.3914C21.1112 14.5056 21.2516 14.6602 21.3487 14.8417C21.4458 15.0231 21.4966 15.2257 21.4966 15.4314C21.4966 15.6372 21.4458 15.8398 21.3487 16.0212C21.2516 16.2026 21.1112 16.3573 20.9401 16.4714L10.3126 23.5564C10.1894 23.6385 10.0514 23.6955 9.90621 23.7242C9.76106 23.753 9.61167 23.7528 9.46658 23.7238C9.32149 23.6948 9.18353 23.6374 9.06059 23.5551C8.93765 23.4728 8.83213 23.367 8.75005 23.2439C8.66798 23.1208 8.61095 22.9827 8.58224 22.8376C8.55352 22.6924 8.55368 22.543 8.5827 22.398C8.61171 22.2529 8.66903 22.1149 8.75136 21.992C8.83369 21.869 8.93944 21.7635 9.06255 21.6814Z" fill="#09B451"/>
</svg>
