<svg width="112" height="57" viewBox="0 0 112 57" fill="none" xmlns="http://www.w3.org/2000/svg">
<path d="M44.7951 9.248V21.008C44.7951 22.64 44.3231 23.912 43.3791 24.824C42.4351 25.72 41.1711 26.168 39.5871 26.168C37.9871 26.168 36.6911 25.704 35.6991 24.776C34.7231 23.848 34.2351 22.552 34.2351 20.888H37.5951C37.6111 21.608 37.7791 22.168 38.0991 22.568C38.4351 22.968 38.9151 23.168 39.5391 23.168C40.1471 23.168 40.6111 22.976 40.9311 22.592C41.2511 22.208 41.4111 21.68 41.4111 21.008V9.248H44.7951ZM54.6186 26.216C53.3386 26.216 52.1866 25.936 51.1626 25.376C50.1386 24.8 49.3306 23.992 48.7386 22.952C48.1626 21.912 47.8746 20.712 47.8746 19.352C47.8746 17.992 48.1706 16.792 48.7626 15.752C49.3706 14.712 50.1946 13.912 51.2346 13.352C52.2746 12.776 53.4346 12.488 54.7146 12.488C55.9946 12.488 57.1546 12.776 58.1946 13.352C59.2346 13.912 60.0506 14.712 60.6426 15.752C61.2506 16.792 61.5546 17.992 61.5546 19.352C61.5546 20.712 61.2426 21.912 60.6186 22.952C60.0106 23.992 59.1786 24.8 58.1226 25.376C57.0826 25.936 55.9146 26.216 54.6186 26.216ZM54.6186 23.288C55.2266 23.288 55.7946 23.144 56.3226 22.856C56.8666 22.552 57.2986 22.104 57.6186 21.512C57.9386 20.92 58.0986 20.2 58.0986 19.352C58.0986 18.088 57.7626 17.12 57.0906 16.448C56.4346 15.76 55.6266 15.416 54.6666 15.416C53.7066 15.416 52.8986 15.76 52.2426 16.448C51.6026 17.12 51.2826 18.088 51.2826 19.352C51.2826 20.616 51.5946 21.592 52.2186 22.28C52.8586 22.952 53.6586 23.288 54.6186 23.288ZM67.3793 14.648C67.8113 14.008 68.4033 13.488 69.1553 13.088C69.9233 12.688 70.7953 12.488 71.7713 12.488C72.9073 12.488 73.9313 12.768 74.8433 13.328C75.7713 13.888 76.4993 14.688 77.0273 15.728C77.5713 16.752 77.8433 17.944 77.8433 19.304C77.8433 20.664 77.5713 21.872 77.0273 22.928C76.4993 23.968 75.7713 24.776 74.8433 25.352C73.9313 25.928 72.9073 26.216 71.7713 26.216C70.7793 26.216 69.9073 26.024 69.1553 25.64C68.4193 25.24 67.8273 24.728 67.3793 24.104V26H64.0193V8.24H67.3793V14.648ZM74.4113 19.304C74.4113 18.504 74.2433 17.816 73.9073 17.24C73.5873 16.648 73.1553 16.2 72.6113 15.896C72.0833 15.592 71.5073 15.44 70.8833 15.44C70.2753 15.44 69.6993 15.6 69.1553 15.92C68.6273 16.224 68.1953 16.672 67.8593 17.264C67.5393 17.856 67.3793 18.552 67.3793 19.352C67.3793 20.152 67.5393 20.848 67.8593 21.44C68.1953 22.032 68.6273 22.488 69.1553 22.808C69.6993 23.112 70.2753 23.264 70.8833 23.264C71.5073 23.264 72.0833 23.104 72.6113 22.784C73.1553 22.464 73.5873 22.008 73.9073 21.416C74.2433 20.824 74.4113 20.12 74.4113 19.304Z" fill="#09B451"/>
<path d="M6.29581 50.112C5.25048 50.112 4.29048 49.8667 3.41581 49.376C2.54115 48.8853 1.84781 48.208 1.33581 47.344C0.823813 46.4693 0.567813 45.4827 0.567813 44.384C0.567813 43.296 0.823813 42.32 1.33581 41.456C1.84781 40.5813 2.54115 39.8987 3.41581 39.408C4.29048 38.9173 5.25048 38.672 6.29581 38.672C7.35181 38.672 8.31181 38.9173 9.17581 39.408C10.0505 39.8987 10.7385 40.5813 11.2398 41.456C11.7518 42.32 12.0078 43.296 12.0078 44.384C12.0078 45.4827 11.7518 46.4693 11.2398 47.344C10.7385 48.208 10.0505 48.8853 9.17581 49.376C8.30115 49.8667 7.34115 50.112 6.29581 50.112ZM6.29581 48.112C6.96781 48.112 7.55981 47.9627 8.07181 47.664C8.58381 47.3547 8.98381 46.9173 9.27181 46.352C9.55981 45.7867 9.70381 45.1307 9.70381 44.384C9.70381 43.6373 9.55981 42.9867 9.27181 42.432C8.98381 41.8667 8.58381 41.4347 8.07181 41.136C7.55981 40.8373 6.96781 40.688 6.29581 40.688C5.62381 40.688 5.02648 40.8373 4.50381 41.136C3.99181 41.4347 3.59181 41.8667 3.30381 42.432C3.01581 42.9867 2.87181 43.6373 2.87181 44.384C2.87181 45.1307 3.01581 45.7867 3.30381 46.352C3.59181 46.9173 3.99181 47.3547 4.50381 47.664C5.02648 47.9627 5.62381 48.112 6.29581 48.112ZM15.9143 42.416C16.2023 42.0107 16.597 41.6747 17.0983 41.408C17.6103 41.1307 18.1916 40.992 18.8423 40.992C19.5996 40.992 20.2823 41.1787 20.8903 41.552C21.509 41.9253 21.9943 42.4587 22.3463 43.152C22.709 43.8347 22.8903 44.6293 22.8903 45.536C22.8903 46.4427 22.709 47.248 22.3463 47.952C21.9943 48.6453 21.509 49.184 20.8903 49.568C20.2823 49.952 19.5996 50.144 18.8423 50.144C18.1916 50.144 17.6156 50.0107 17.1143 49.744C16.6236 49.4773 16.2236 49.1413 15.9143 48.736V54.224H13.6743V41.136H15.9143V42.416ZM20.6023 45.536C20.6023 45.0027 20.4903 44.544 20.2663 44.16C20.053 43.7653 19.765 43.4667 19.4023 43.264C19.0503 43.0613 18.6663 42.96 18.2503 42.96C17.845 42.96 17.461 43.0667 17.0983 43.28C16.7463 43.4827 16.4583 43.7813 16.2343 44.176C16.021 44.5707 15.9143 45.0347 15.9143 45.568C15.9143 46.1013 16.021 46.5653 16.2343 46.96C16.4583 47.3547 16.7463 47.6587 17.0983 47.872C17.461 48.0747 17.845 48.176 18.2503 48.176C18.6663 48.176 19.0503 48.0693 19.4023 47.856C19.765 47.6427 20.053 47.3387 20.2663 46.944C20.4903 46.5493 20.6023 46.08 20.6023 45.536ZM26.7581 42.416C27.0461 42.0107 27.4407 41.6747 27.9421 41.408C28.4541 41.1307 29.0354 40.992 29.6861 40.992C30.4434 40.992 31.1261 41.1787 31.7341 41.552C32.3527 41.9253 32.8381 42.4587 33.1901 43.152C33.5527 43.8347 33.7341 44.6293 33.7341 45.536C33.7341 46.4427 33.5527 47.248 33.1901 47.952C32.8381 48.6453 32.3527 49.184 31.7341 49.568C31.1261 49.952 30.4434 50.144 29.6861 50.144C29.0354 50.144 28.4594 50.0107 27.9581 49.744C27.4674 49.4773 27.0674 49.1413 26.7581 48.736V54.224H24.5181V41.136H26.7581V42.416ZM31.4461 45.536C31.4461 45.0027 31.3341 44.544 31.1101 44.16C30.8967 43.7653 30.6087 43.4667 30.2461 43.264C29.8941 43.0613 29.5101 42.96 29.0941 42.96C28.6887 42.96 28.3047 43.0667 27.9421 43.28C27.5901 43.4827 27.3021 43.7813 27.0781 44.176C26.8647 44.5707 26.7581 45.0347 26.7581 45.568C26.7581 46.1013 26.8647 46.5653 27.0781 46.96C27.3021 47.3547 27.5901 47.6587 27.9421 47.872C28.3047 48.0747 28.6887 48.176 29.0941 48.176C29.5101 48.176 29.8941 48.0693 30.2461 47.856C30.6087 47.6427 30.8967 47.3387 31.1101 46.944C31.3341 46.5493 31.4461 46.08 31.4461 45.536ZM39.2978 50.144C38.4445 50.144 37.6765 49.9573 36.9938 49.584C36.3111 49.2 35.7725 48.6613 35.3778 47.968C34.9938 47.2747 34.8018 46.4747 34.8018 45.568C34.8018 44.6613 34.9991 43.8613 35.3938 43.168C35.7991 42.4747 36.3485 41.9413 37.0418 41.568C37.7351 41.184 38.5085 40.992 39.3618 40.992C40.2151 40.992 40.9885 41.184 41.6818 41.568C42.3751 41.9413 42.9191 42.4747 43.3138 43.168C43.7191 43.8613 43.9218 44.6613 43.9218 45.568C43.9218 46.4747 43.7138 47.2747 43.2978 47.968C42.8925 48.6613 42.3378 49.2 41.6338 49.584C40.9405 49.9573 40.1618 50.144 39.2978 50.144ZM39.2978 48.192C39.7031 48.192 40.0818 48.096 40.4338 47.904C40.7965 47.7013 41.0845 47.4027 41.2978 47.008C41.5111 46.6133 41.6178 46.1333 41.6178 45.568C41.6178 44.7253 41.3938 44.08 40.9458 43.632C40.5085 43.1733 39.9698 42.944 39.3298 42.944C38.6898 42.944 38.1511 43.1733 37.7138 43.632C37.2871 44.08 37.0738 44.7253 37.0738 45.568C37.0738 46.4107 37.2818 47.0613 37.6978 47.52C38.1245 47.968 38.6578 48.192 39.2978 48.192ZM47.8049 42.512C48.0929 42.0427 48.4663 41.6747 48.9249 41.408C49.3943 41.1413 49.9276 41.008 50.5249 41.008V43.36H49.9329C49.2289 43.36 48.6956 43.5253 48.3329 43.856C47.9809 44.1867 47.8049 44.7627 47.8049 45.584V50H45.5649V41.136H47.8049V42.512ZM54.6417 42.976V47.264C54.6417 47.5627 54.711 47.7813 54.8497 47.92C54.999 48.048 55.2444 48.112 55.5857 48.112H56.6257V50H55.2177C53.3297 50 52.3857 49.0827 52.3857 47.248V42.976H51.3297V41.136H52.3857V38.944H54.6417V41.136H56.6257V42.976H54.6417ZM66.6048 41.136V50H64.3488V48.88C64.0608 49.264 63.6821 49.568 63.2128 49.792C62.7541 50.0053 62.2528 50.112 61.7088 50.112C61.0155 50.112 60.4021 49.968 59.8688 49.68C59.3355 49.3813 58.9141 48.9493 58.6048 48.384C58.3061 47.808 58.1568 47.1253 58.1568 46.336V41.136H60.3968V46.016C60.3968 46.72 60.5728 47.264 60.9248 47.648C61.2768 48.0213 61.7568 48.208 62.3648 48.208C62.9835 48.208 63.4688 48.0213 63.8208 47.648C64.1728 47.264 64.3488 46.72 64.3488 46.016V41.136H66.6048ZM73.7269 41.008C74.7829 41.008 75.6363 41.344 76.2869 42.016C76.9376 42.6773 77.2629 43.6053 77.2629 44.8V50H75.0229V45.104C75.0229 44.4 74.8469 43.8613 74.4949 43.488C74.1429 43.104 73.6629 42.912 73.0549 42.912C72.4363 42.912 71.9456 43.104 71.5829 43.488C71.2309 43.8613 71.0549 44.4 71.0549 45.104V50H68.8149V41.136H71.0549V42.24C71.3536 41.856 71.7323 41.5573 72.1909 41.344C72.6603 41.12 73.1723 41.008 73.7269 41.008ZM80.5291 40.08C80.1344 40.08 79.8037 39.9573 79.5371 39.712C79.2811 39.456 79.1531 39.1413 79.1531 38.768C79.1531 38.3947 79.2811 38.0853 79.5371 37.84C79.8037 37.584 80.1344 37.456 80.5291 37.456C80.9237 37.456 81.2491 37.584 81.5051 37.84C81.7717 38.0853 81.9051 38.3947 81.9051 38.768C81.9051 39.1413 81.7717 39.456 81.5051 39.712C81.2491 39.9573 80.9237 40.08 80.5291 40.08ZM81.6331 41.136V50H79.3931V41.136H81.6331ZM86.4542 42.976V47.264C86.4542 47.5627 86.5235 47.7813 86.6622 47.92C86.8115 48.048 87.0569 48.112 87.3982 48.112H88.4382V50H87.0302C85.1422 50 84.1982 49.0827 84.1982 47.248V42.976H83.1422V41.136H84.1982V38.944H86.4542V41.136H88.4382V42.976H86.4542ZM91.1853 40.08C90.7906 40.08 90.46 39.9573 90.1933 39.712C89.9373 39.456 89.8093 39.1413 89.8093 38.768C89.8093 38.3947 89.9373 38.0853 90.1933 37.84C90.46 37.584 90.7906 37.456 91.1853 37.456C91.58 37.456 91.9053 37.584 92.1613 37.84C92.428 38.0853 92.5613 38.3947 92.5613 38.768C92.5613 39.1413 92.428 39.456 92.1613 39.712C91.9053 39.9573 91.58 40.08 91.1853 40.08ZM92.2893 41.136V50H90.0493V41.136H92.2893ZM102.742 45.376C102.742 45.696 102.721 45.984 102.678 46.24H96.1984C96.2518 46.88 96.4758 47.3813 96.8704 47.744C97.2651 48.1067 97.7504 48.288 98.3264 48.288C99.1584 48.288 99.7504 47.9307 100.102 47.216H102.518C102.262 48.0693 101.772 48.7733 101.046 49.328C100.321 49.872 99.4304 50.144 98.3744 50.144C97.5211 50.144 96.7531 49.9573 96.0704 49.584C95.3984 49.2 94.8704 48.6613 94.4864 47.968C94.1131 47.2747 93.9264 46.4747 93.9264 45.568C93.9264 44.6507 94.1131 43.8453 94.4864 43.152C94.8598 42.4587 95.3824 41.9253 96.0544 41.552C96.7264 41.1787 97.4998 40.992 98.3744 40.992C99.2171 40.992 99.9691 41.1733 100.63 41.536C101.302 41.8987 101.82 42.416 102.182 43.088C102.556 43.7493 102.742 44.512 102.742 45.376ZM100.422 44.736C100.412 44.16 100.204 43.7013 99.7984 43.36C99.3931 43.008 98.8971 42.832 98.3104 42.832C97.7558 42.832 97.2864 43.0027 96.9024 43.344C96.5291 43.6747 96.2998 44.1387 96.2144 44.736H100.422ZM107.769 50.144C107.044 50.144 106.393 50.016 105.817 49.76C105.241 49.4933 104.783 49.136 104.441 48.688C104.111 48.24 103.929 47.744 103.897 47.2H106.153C106.196 47.5413 106.361 47.824 106.649 48.048C106.948 48.272 107.316 48.384 107.753 48.384C108.18 48.384 108.511 48.2987 108.745 48.128C108.991 47.9573 109.113 47.7387 109.113 47.472C109.113 47.184 108.964 46.9707 108.665 46.832C108.377 46.6827 107.913 46.5227 107.273 46.352C106.612 46.192 106.068 46.0267 105.641 45.856C105.225 45.6853 104.863 45.424 104.553 45.072C104.255 44.72 104.105 44.2453 104.105 43.648C104.105 43.1573 104.244 42.7093 104.521 42.304C104.809 41.8987 105.215 41.5787 105.737 41.344C106.271 41.1093 106.895 40.992 107.609 40.992C108.665 40.992 109.508 41.2587 110.137 41.792C110.767 42.3147 111.113 43.024 111.177 43.92H109.033C109.001 43.568 108.852 43.2907 108.585 43.088C108.329 42.8747 107.983 42.768 107.545 42.768C107.14 42.768 106.825 42.8427 106.601 42.992C106.388 43.1413 106.281 43.3493 106.281 43.616C106.281 43.9147 106.431 44.144 106.729 44.304C107.028 44.4533 107.492 44.608 108.121 44.768C108.761 44.928 109.289 45.0933 109.705 45.264C110.121 45.4347 110.479 45.7013 110.777 46.064C111.087 46.416 111.247 46.8853 111.257 47.472C111.257 47.984 111.113 48.4427 110.825 48.848C110.548 49.2533 110.143 49.5733 109.609 49.808C109.087 50.032 108.473 50.144 107.769 50.144Z" fill="#333333"/>
<path d="M35 32.0001C46.6667 30.8335 70.8 29.2001 74 32.0001" stroke="#09B451" stroke-width="2" stroke-linecap="round"/>
</svg>
